<?xml version="1.0" encoding="UTF-8"?>
<svg id="Layer_2" data-name="Layer 2" xmlns="http://www.w3.org/2000/svg" viewBox="0 0 31.9 33.77">
  <defs>
    <style>
      .cls-1 {
        fill: #fff;
      }

      .cls-2 {
        fill: #ffce00;
        font-family: ShowcardGothic-Reg, 'Showcard Gothic';
        font-size: 12px;
        stroke: #fff;
        stroke-miterlimit: 10;
        stroke-width: .5px;
      }
    </style>
  </defs>
  <g>
    <path d="M15.95,15.67l-7.35,7.35-1.52-1.51-2.99-2.99-2.85-2.86L12.6,4.29l3.34-3.33,3.34,3.33,11.36,11.36-4.01,4.01-1.31,1.32-2.04,2.03-7.35-7.35ZM16.11,8.51l-.16-.16-.06.06.22.11Z"/>
    <path class="cls-1" d="M15.95,1.67l2.99,2.98,11.01,11.01-3.66,3.66-1.31,1.32-1.68,1.67-7.35-7.35-7.35,7.35-1.17-1.16-2.99-2.99-2.49-2.5L12.96,4.65l2.99-2.98M9,15.92l6.95-6.94h.02s2.97,2.98,2.97,2.98l3.96,3.96.67-.67-7.62-7.62-7.62,7.62.67.67M15.95.25l-.71.7-2.99,2.98L1.24,14.95l-.71.71.7.71,2.49,2.5,2.99,2.99,1.17,1.16.71.7.7-.7,6.64-6.64,6.64,6.64.71.71.71-.7,1.68-1.67,1.31-1.32,3.66-3.66.71-.71-.71-.71L19.65,3.94l-2.99-2.98-.71-.7h0Z"/>
  </g>
  <g>
    <polygon points="1.25 23.47 4.95 19.79 8.6 23.43 15.95 16.09 19.29 19.42 23.31 23.44 26.96 19.79 30.66 23.47 23.31 30.82 15.95 23.47 8.6 30.82 1.25 23.47"/>
    <path class="cls-1" d="M15.95,16.79l2.99,2.98,4.37,4.37,3.65-3.65,2.99,2.98-6.64,6.64-2.99-2.99-4.37-4.36-7.35,7.35-6.64-6.64,2.99-2.98,3.65,3.64,4.37-4.36,2.98-2.98M15.95,15.38l-.71.71-2.98,2.98-3.66,3.65-2.94-2.94-.71-.7-.71.7-2.99,2.98-.71.71.71.71,6.64,6.64.71.71.71-.71,6.64-6.64,3.66,3.65,2.99,2.99.71.71.71-.71,6.64-6.64.71-.71-.71-.71-2.99-2.98-.71-.7-.71.71-2.94,2.94-3.66-3.66-2.99-2.98-.71-.7h0Z"/>
  </g>
  <text class="cls-2" transform="translate(4.65 31.09)"><tspan x="0" y="0">TCG</tspan></text>
</svg>